<mxfile host="app.diagrams.net" agent="Mozilla/5.0 (Windows NT 10.0; Win64; x64; rv:128.0) Gecko/20100101 Firefox/128.0" version="26.2.14">
  <diagram name="Page-1" id="-fobINWZPjJc2JqUtG3q">
    <mxGraphModel dx="2022" dy="1171" grid="1" gridSize="10" guides="1" tooltips="1" connect="1" arrows="1" fold="1" page="1" pageScale="1" pageWidth="850" pageHeight="1100" math="0" shadow="0">
      <root>
        <mxCell id="0" />
        <mxCell id="1" parent="0" />
        <mxCell id="2" value="Frame Acquisition" style="whiteSpace=wrap;strokeWidth=2;fillColor=#e51400;fontColor=#ffffff;strokeColor=#B20000;" parent="1" vertex="1">
          <mxGeometry x="347" y="140" width="157" height="54" as="geometry" />
        </mxCell>
        <mxCell id="3" value="Image Preprocessing" style="whiteSpace=wrap;strokeWidth=2;fillColor=#e51400;fontColor=#ffffff;strokeColor=#B20000;" parent="1" vertex="1">
          <mxGeometry x="323" y="267" width="206" height="54" as="geometry" />
        </mxCell>
        <mxCell id="4" value="Feature Detection and Description" style="whiteSpace=wrap;strokeWidth=2;fillColor=#e51400;fontColor=#ffffff;strokeColor=#B20000;" parent="1" vertex="1">
          <mxGeometry x="330" y="394" width="190" height="54" as="geometry" />
        </mxCell>
        <mxCell id="5" value="Feature Matching and Tracking" style="whiteSpace=wrap;strokeWidth=2;fillColor=#e51400;fontColor=#ffffff;strokeColor=#B20000;" parent="1" vertex="1">
          <mxGeometry x="333" y="521" width="185" height="54" as="geometry" />
        </mxCell>
        <mxCell id="6" value="Motion Estimation" style="whiteSpace=wrap;strokeWidth=2;fillColor=#e51400;fontColor=#ffffff;strokeColor=#B20000;" parent="1" vertex="1">
          <mxGeometry x="331" y="648" width="189" height="54" as="geometry" />
        </mxCell>
        <mxCell id="7" value="Map Initialization" style="whiteSpace=wrap;strokeWidth=2;fontStyle=0;fillColor=#e51400;fontColor=#ffffff;strokeColor=#B20000;" parent="1" vertex="1">
          <mxGeometry x="348.5" y="775" width="155" height="54" as="geometry" />
        </mxCell>
        <mxCell id="12" value="Capture frames" style="curved=1;startArrow=none;endArrow=block;exitX=0.5;exitY=1;entryX=0.5;entryY=0;" parent="1" source="2" target="3" edge="1">
          <mxGeometry relative="1" as="geometry">
            <Array as="points" />
          </mxGeometry>
        </mxCell>
        <mxCell id="13" value="Enhance Images" style="curved=1;startArrow=none;endArrow=block;exitX=0.5;exitY=1;entryX=0.5;entryY=0;" parent="1" source="3" target="4" edge="1">
          <mxGeometry relative="1" as="geometry">
            <Array as="points" />
          </mxGeometry>
        </mxCell>
        <mxCell id="14" value="Extract features" style="curved=1;startArrow=none;endArrow=block;exitX=0.5;exitY=1;entryX=0.5;entryY=0;" parent="1" source="4" target="5" edge="1">
          <mxGeometry relative="1" as="geometry">
            <Array as="points" />
          </mxGeometry>
        </mxCell>
        <mxCell id="15" value="Match features" style="curved=1;startArrow=none;endArrow=block;exitX=0.5;exitY=1;entryX=0.5;entryY=0;" parent="1" source="5" target="6" edge="1">
          <mxGeometry relative="1" as="geometry">
            <Array as="points" />
          </mxGeometry>
        </mxCell>
        <mxCell id="16" value="Estimate motion" style="curved=1;startArrow=none;endArrow=block;exitX=0.5;exitY=1;entryX=0.5;entryY=0;" parent="1" source="6" target="7" edge="1">
          <mxGeometry relative="1" as="geometry">
            <Array as="points" />
          </mxGeometry>
        </mxCell>
        <mxCell id="17" value="Update map" style="curved=1;startArrow=none;endArrow=block;exitX=0.5;exitY=1;entryX=0.5;entryY=0;entryDx=0;entryDy=0;" parent="1" source="7" target="-1W4AYy9zTJus1eYndaN-27" edge="1">
          <mxGeometry relative="1" as="geometry">
            <Array as="points" />
            <mxPoint x="425" y="920" as="targetPoint" />
          </mxGeometry>
        </mxCell>
        <mxCell id="-1W4AYy9zTJus1eYndaN-20" value="Loop Closure Detection" style="whiteSpace=wrap;strokeWidth=2;fillColor=#6d8764;fontColor=#ffffff;strokeColor=#3A5431;" vertex="1" parent="1">
          <mxGeometry x="312.5" y="1180" width="227" height="54" as="geometry" />
        </mxCell>
        <mxCell id="-1W4AYy9zTJus1eYndaN-21" value="Map Optimization" style="whiteSpace=wrap;strokeWidth=2;fillColor=#6d8764;fontColor=#ffffff;strokeColor=#3A5431;" vertex="1" parent="1">
          <mxGeometry x="332.5" y="1307" width="186" height="54" as="geometry" />
        </mxCell>
        <mxCell id="-1W4AYy9zTJus1eYndaN-22" value="Trajectory Estimation" style="whiteSpace=wrap;strokeWidth=2;fillColor=#6d8764;fontColor=#ffffff;strokeColor=#3A5431;" vertex="1" parent="1">
          <mxGeometry x="318.5" y="1434" width="214" height="54" as="geometry" />
        </mxCell>
        <mxCell id="-1W4AYy9zTJus1eYndaN-23" value="Output Pose and Map Data" style="whiteSpace=wrap;strokeWidth=2;fillColor=#e51400;fontColor=#ffffff;strokeColor=#B20000;" vertex="1" parent="1">
          <mxGeometry x="350.5" y="1561" width="151" height="54" as="geometry" />
        </mxCell>
        <mxCell id="-1W4AYy9zTJus1eYndaN-24" value="Detect loops" style="curved=1;startArrow=none;endArrow=block;exitX=0.5;exitY=1;entryX=0.5;entryY=0;" edge="1" parent="1" source="-1W4AYy9zTJus1eYndaN-20" target="-1W4AYy9zTJus1eYndaN-21">
          <mxGeometry relative="1" as="geometry">
            <Array as="points" />
          </mxGeometry>
        </mxCell>
        <mxCell id="-1W4AYy9zTJus1eYndaN-25" value="Optimize map" style="curved=1;startArrow=none;endArrow=block;exitX=0.5;exitY=1;entryX=0.5;entryY=0;" edge="1" parent="1" source="-1W4AYy9zTJus1eYndaN-21" target="-1W4AYy9zTJus1eYndaN-22">
          <mxGeometry relative="1" as="geometry">
            <Array as="points" />
          </mxGeometry>
        </mxCell>
        <mxCell id="-1W4AYy9zTJus1eYndaN-26" value="Compute trajectory" style="curved=1;startArrow=none;endArrow=block;exitX=0.5;exitY=1;entryX=0.5;entryY=0;" edge="1" parent="1" source="-1W4AYy9zTJus1eYndaN-22" target="-1W4AYy9zTJus1eYndaN-23">
          <mxGeometry relative="1" as="geometry">
            <Array as="points" />
          </mxGeometry>
        </mxCell>
        <mxCell id="-1W4AYy9zTJus1eYndaN-27" value="Key frame Insertion and Map Expansion" style="whiteSpace=wrap;strokeWidth=2;fillColor=#6d8764;fontColor=#ffffff;strokeColor=#3A5431;" vertex="1" parent="1">
          <mxGeometry x="348" y="920" width="155" height="54" as="geometry" />
        </mxCell>
        <mxCell id="-1W4AYy9zTJus1eYndaN-28" value="Update map" style="curved=1;startArrow=none;endArrow=block;exitX=0.5;exitY=1;entryX=0.5;entryY=0;entryDx=0;entryDy=0;" edge="1" parent="1" source="-1W4AYy9zTJus1eYndaN-27" target="-1W4AYy9zTJus1eYndaN-29">
          <mxGeometry relative="1" as="geometry">
            <Array as="points" />
            <mxPoint x="424.5" y="1047" as="targetPoint" />
          </mxGeometry>
        </mxCell>
        <mxCell id="-1W4AYy9zTJus1eYndaN-29" value="Bundle Adjustment and Optimization" style="whiteSpace=wrap;strokeWidth=2;fillColor=#6d8764;fontColor=#ffffff;strokeColor=#3A5431;" vertex="1" parent="1">
          <mxGeometry x="348" y="1050" width="155" height="54" as="geometry" />
        </mxCell>
        <mxCell id="-1W4AYy9zTJus1eYndaN-30" value="Update map" style="curved=1;startArrow=none;endArrow=block;exitX=0.5;exitY=1;entryX=0.5;entryY=0;entryDx=0;entryDy=0;" edge="1" parent="1" source="-1W4AYy9zTJus1eYndaN-29" target="-1W4AYy9zTJus1eYndaN-20">
          <mxGeometry relative="1" as="geometry">
            <Array as="points" />
            <mxPoint x="424.5" y="1177" as="targetPoint" />
          </mxGeometry>
        </mxCell>
      </root>
    </mxGraphModel>
  </diagram>
</mxfile>
